<svg width="32" height="32" viewBox="0 0 32 32" fill="none" xmlns="http://www.w3.org/2000/svg">
<path fill-rule="evenodd" clip-rule="evenodd" d="M16 32C24.8366 32 32 24.8366 32 16C32 7.16344 24.8366 0 16 0C7.16344 0 0 7.16344 0 16C0 24.8366 7.16344 32 16 32ZM16 30C23.732 30 30 23.732 30 16C30 8.26801 23.732 2 16 2C8.26801 2 2 8.26801 2 16C2 23.732 8.26801 30 16 30Z" fill="#0158FF"/>
<path fill-rule="evenodd" clip-rule="evenodd" d="M16 30C23.732 30 30 23.732 30 16C30 8.26801 23.732 2 16 2C8.26801 2 2 8.26801 2 16C2 23.732 8.26801 30 16 30ZM16 28C22.6274 28 28 22.6274 28 16C28 9.37258 22.6274 4 16 4C9.37258 4 4 9.37258 4 16C4 22.6274 9.37258 28 16 28Z" fill="#94FE63"/>
<path fill-rule="evenodd" clip-rule="evenodd" d="M16 28C22.6274 28 28 22.6274 28 16C28 9.37258 22.6274 4 16 4C9.37258 4 4 9.37258 4 16C4 22.6274 9.37258 28 16 28ZM16 26C21.5228 26 26 21.5228 26 16C26 10.4772 21.5228 6 16 6C10.4772 6 6 10.4772 6 16C6 21.5228 10.4772 26 16 26Z" fill="#F4F605"/>
<path fill-rule="evenodd" clip-rule="evenodd" d="M16 26C21.5228 26 26 21.5228 26 16C26 10.4772 21.5228 6 16 6C10.4772 6 6 10.4772 6 16C6 21.5228 10.4772 26 16 26ZM16 24C20.4183 24 24 20.4183 24 16C24 11.5817 20.4183 8 16 8C11.5817 8 8 11.5817 8 16C8 20.4183 11.5817 24 16 24Z" fill="#FB9F01"/>
<path d="M24 16C24 20.4183 20.4183 24 16 24C11.5817 24 8 20.4183 8 16C8 11.5817 11.5817 8 16 8C20.4183 8 24 11.5817 24 16Z" fill="#FF2001"/>
<path fill-rule="evenodd" clip-rule="evenodd" d="M12.2927 10.6996L11.5933 11.3993L13.2999 13.1062L15.0065 14.8131V16.402V17.9909H16.001H16.9955V16.402V14.8131L18.698 13.1104L20.4005 11.4076L19.6967 10.7043L18.9929 10.001L17.5062 11.484C16.6885 12.2997 16.0113 12.9671 16.0014 12.9671C15.9915 12.9671 15.3134 12.2995 14.4945 11.4835C13.6756 10.6676 13.0026 10 12.9988 10C12.9951 10 12.6773 10.3148 12.2927 10.6996ZM11.5042 14.8004C11.2816 15.2705 11.1527 15.6755 11.0697 16.1656C10.8323 17.5669 11.2075 19.01 12.1008 20.1319C12.2482 20.317 12.6819 20.7506 12.8658 20.8967C13.6933 21.554 14.6354 21.9182 15.6921 21.9892C16.3242 22.0317 16.9562 21.9488 17.577 21.742C19.3715 21.1443 20.667 19.6015 20.9472 17.7287C21.055 17.008 20.9968 16.2371 20.7809 15.5262C20.6951 15.2435 20.5212 14.82 20.4303 14.6723L20.3955 14.6158L19.6389 15.3719C19.0285 15.9818 18.8841 16.1346 18.8918 16.1617C18.9542 16.3804 18.9874 16.6077 18.9962 16.8782C19.0135 17.4026 18.9305 17.8264 18.7241 18.269C18.3228 19.1296 17.5398 19.7437 16.5825 19.9489C16.4163 19.9845 16.3552 19.9885 15.9926 19.988C15.6367 19.9875 15.5668 19.9828 15.411 19.9492C14.4619 19.744 13.7155 19.1634 13.2944 18.3028C13.104 17.9138 13.0179 17.5538 13.0049 17.0932C12.9955 16.7602 13.0139 16.5588 13.0776 16.2967L13.1185 16.1281L12.3644 15.3737C11.9495 14.9587 11.6056 14.6192 11.6001 14.6192C11.5945 14.6192 11.5514 14.7007 11.5042 14.8004Z" fill="white"/>
<g clip-path="url(#clip0_1275_328951)">
<rect x="20" y="20" width="12" height="12" rx="6" fill="#6401C4"/>
<path fill-rule="evenodd" clip-rule="evenodd" d="M22.4674 29.5328L22.4701 29.5356C22.51 29.5752 22.5569 29.6051 22.6132 29.6255C23.3128 29.8744 23.8113 29.7652 24.1599 29.5701C24.7067 29.2619 24.8922 28.698 24.8922 28.698C24.9605 28.4954 24.8513 28.2757 24.6483 28.2073C24.4451 28.139 23.8639 27.5578 23.7957 27.3547C23.7273 27.1517 23.5076 27.0424 23.305 27.1107C23.305 27.1107 22.7411 27.2963 22.4328 27.843C22.2378 28.1916 22.1285 28.6901 22.3774 29.3897C22.3978 29.4461 22.4277 29.493 22.4674 29.5328Z" fill="#FF5722"/>
<path fill-rule="evenodd" clip-rule="evenodd" d="M27.9695 25.7319C27.7916 25.8509 26.305 27.0893 26.2136 27.2827C26.1221 27.4763 26.2047 27.7075 26.3982 27.7991C27.0155 28.0912 27.172 28.3744 27.4087 28.8178C27.4664 28.9262 27.5722 29.0008 27.6937 29.0189C27.8151 29.037 27.9379 28.9964 28.0248 28.9095C29.5626 27.3717 28.5072 25.8385 28.5072 25.8385C28.3884 25.6607 28.1472 25.6128 27.9695 25.7319Z" fill="#FF5722"/>
<path fill-rule="evenodd" clip-rule="evenodd" d="M26.1617 23.4926C26.1617 23.4926 24.6284 22.4372 23.0906 23.975C23.0037 24.0619 22.9632 24.1847 22.9813 24.3061C22.9994 24.4276 23.0739 24.5334 23.1823 24.5911C23.6258 24.8278 23.9089 24.9843 24.201 25.6016C24.2926 25.7951 24.5238 25.8778 24.7174 25.7862C24.9108 25.6948 26.1492 24.2083 26.2682 24.0304C26.3873 23.8526 26.3394 23.6115 26.1617 23.4926Z" fill="#FF5722"/>
<path fill-rule="evenodd" clip-rule="evenodd" d="M29.5343 22.4686L29.5315 22.4659C29.4889 22.4235 29.4348 22.3899 29.3742 22.371L29.3679 22.3691C29.3405 22.3609 29.3123 22.3561 29.2836 22.3547C29.0899 22.34 25.4957 22.1265 23.8338 26.0088C23.8275 26.0233 23.8216 26.0375 23.8175 26.0525C23.7981 26.1159 23.7944 26.1799 23.8066 26.2417C23.8187 26.3035 23.8451 26.3622 23.887 26.4135C23.8969 26.4255 23.9075 26.4369 23.9186 26.4477L25.5579 28.0871C25.6703 28.1995 25.8385 28.2314 25.9847 28.1701C29.8742 26.5094 29.66 22.9104 29.6454 22.7166C29.6441 22.6878 29.6393 22.6597 29.631 22.6323L29.6291 22.6259C29.6102 22.5654 29.5766 22.5112 29.5343 22.4686Z" fill="#F4F4F4"/>
<path fill-rule="evenodd" clip-rule="evenodd" d="M26.7913 24.6604L25.4206 26.0311C25.2693 26.1824 25.2693 26.428 25.4206 26.5793C25.5719 26.7307 25.8176 26.7307 25.9689 26.5793L27.3396 25.2086C27.4909 25.0573 27.4909 24.8117 27.3396 24.6604C27.1882 24.509 26.9426 24.509 26.7913 24.6604Z" fill="#FF5722"/>
</g>
<defs>
<clipPath id="clip0_1275_328951">
<rect x="20" y="20" width="12" height="12" rx="6" fill="white"/>
</clipPath>
</defs>
</svg>
